STARTFONT 2.1
COMMENT $Xorg: olgl10.bdf,v 1.3 2000/08/18 15:17:40 xorgcvs Exp $
COMMENT 
COMMENT  Copyright 1989 by Sun Microsystems, Inc. Mountain View, CA.
COMMENT 
COMMENT  Permission to use, copy, modify, and distribute this software and
COMMENT  its documentation for any purpose and without fee is hereby granted,
COMMENT  provided that the above copyright notices appear in all copies and
COMMENT  that both those copyright notices and this permission notice appear
COMMENT  in supporting documentation, and that the name of Sun Microsystems
COMMENT  not be used in advertising or publicity pertaining to distribution
COMMENT  of the software without specific, written prior permission.  Sun
COMMENT  Microsystems make no representations about the suitability of this
COMMENT  software for any purpose.  It is provided "as is" without express or
COMMENT  implied warranty.
COMMENT 
COMMENT  SUN MICROSYSTEMS DISCLAIM ALL WARRANTIES WITH REGARD TO THIS
COMMENT  SOFTWARE, INCLUDING ALL IMPLIED WARRANTIES OF MERCHANTABILITY AND
COMMENT  FITNESS, IN NO EVENT SHALL SUN MICROSYSTEMS BE LIABLE FOR ANY
COMMENT  SPECIAL, INDIRECT OR CONSEQUENTIAL DAMAGES OR ANY DAMAGES WHATSOEVER
COMMENT  RESULTING FROM LOSS OF USE, DATA OR PROFITS, WHETHER IN AN ACTION OF
COMMENT  CONTRACT, NEGLIGENCE OR OTHER TORTIOUS ACTION, ARISING OUT OF OR IN
COMMENT  CONNECTION WITH THE USE OR PERFORMANCE OF THIS SOFTWARE.
COMMENT 
COMMENT  ** Open Look Glyph Font, 10-pt **
FONT -Sun-OPEN LOOK glyph-----10-100-75-75-P-101-SunOLglyph-1
SIZE 10 78 78
FONTBOUNDINGBOX 41 41 0 -41
STARTPROPERTIES 18
COMMENT Begin LogicalFontDescription
FONTNAME_REGISTRY ""
FAMILY_NAME "OPEN LOOK glyph"
FOUNDRY "Sun"
WEIGHT_NAME ""
SETWIDTH_NAME ""
SLANT ""
ADD_STYLE_NAME ""
PIXEL_SIZE 10
POINT_SIZE 100
RESOLUTION_X 75
RESOLUTION_Y 75
SPACING "P"
AVERAGE_WIDTH 101
CHARSET_REGISTRY "SunOLglyph"
CHARSET_ENCODING "1"
COMMENT END LogicalFontDescription
FACE_NAME "OLGlyph"
FONT_DESCENT 41
FONT_ASCENT 0
ENDPROPERTIES
CHARS 234
STARTCHAR VerticalScrollbarEle
ENCODING 1
SWIDTH 96 0
DWIDTH 13 0
BBX 13 41 0 -41
BITMAP
7ff0
8018
8018
8018
8018
8618
8f18
9f98
9f98
8018
8018
8018
8018
fff8
8018
8018
8018
8018
8018
8018
8018
8018
8018
8018
8018
8018
fff8
8018
8018
8018
8018
9f98
9f98
8f18
8618
8018
8018
8018
8018
fff8
7ff0
ENDCHAR
STARTCHAR VerticalScrollbarEle
ENCODING 2
SWIDTH 96 0
DWIDTH 13 0
BBX 13 41 0 -41
BITMAP
7ff0
fff8
fff8
fff8
fff8
f9f8
f0f8
e078
e078
fff8
fff8
fff8
fff8
fff8
8018
8018
8018
8018
8018
8018
8018
8018
8018
8018
8018
8018
fff8
8018
8018
8018
8018
9f98
9f98
8f18
8618
8018
8018
8018
8018
fff8
7ff0
ENDCHAR
STARTCHAR VerticalScrollbarEle
ENCODING 3
SWIDTH 96 0
DWIDTH 13 0
BBX 13 41 0 -41
BITMAP
7ff0
8018
8018
8018
8018
8618
8f18
9f98
9f98
8018
8018
8018
8018
fff8
fff8
fff8
fff8
fff8
fff8
fff8
fff8
fff8
fff8
fff8
fff8
fff8
fff8
8018
8018
8018
8018
9f98
9f98
8f18
8618
8018
8018
8018
8018
fff8
7ff0
ENDCHAR
STARTCHAR VerticalScrollbarEle
ENCODING 4
SWIDTH 96 0
DWIDTH 13 0
BBX 13 41 0 -41
BITMAP
7ff0
8018
8018
8018
8018
8618
8f18
9f98
9f98
8018
8018
8018
8018
fff8
8018
8018
8018
8018
8018
8018
8018
8018
8018
8018
8018
8018
fff8
fff8
fff8
fff8
fff8
e078
e078
f0f8
f9f8
fff8
fff8
fff8
fff8
fff8
7ff0
ENDCHAR
STARTCHAR VerticalScrollbarRed
ENCODING 5
SWIDTH 96 0
DWIDTH 13 0
BBX 13 28 0 -28
BITMAP
7ff0
8018
8018
8018
8018
8618
8f18
9f98
9f98
8018
8018
8018
8018
fff8
8018
8018
8018
8018
9f98
9f98
8f18
8618
8018
8018
8018
8018
fff8
7ff0
ENDCHAR
STARTCHAR VerticalScrollbarRed
ENCODING 6
SWIDTH 96 0
DWIDTH 13 0
BBX 13 28 0 -28
BITMAP
7ff0
fff8
fff8
fff8
fff8
f9f8
f0f8
e078
e078
fff8
fff8
fff8
fff8
fff8
8018
8018
8018
8018
9f98
9f98
8f18
8618
8018
8018
8018
8018
fff8
7ff0
ENDCHAR
STARTCHAR VerticalScrollbarRed
ENCODING 7
SWIDTH 96 0
DWIDTH 13 0
BBX 13 28 0 -28
BITMAP
7ff0
8018
8018
8018
8018
8618
8f18
9f98
9f98
8018
8018
8018
8018
fff8
fff8
fff8
fff8
fff8
e078
e078
f0f8
f9f8
fff8
fff8
fff8
fff8
fff8
7ff0
ENDCHAR
STARTCHAR VerticalScrollbarAnc
ENCODING 8
SWIDTH 96 0
DWIDTH 13 0
BBX 13 5 0 -5
BITMAP
fff8
8008
8008
8008
fff8
ENDCHAR
STARTCHAR VerticalScrollbarAnc
ENCODING 9
SWIDTH 96 0
DWIDTH 13 0
BBX 13 5 0 -5
BITMAP
fff8
fff8
fff8
fff8
fff8
ENDCHAR
STARTCHAR HorizontalScrollbarE
ENCODING 10
SWIDTH 96 0
DWIDTH 41 0
BBX 41 13 0 -13
BITMAP
7fffffffff00
800400200180
800400200180
818400218180
83840021c180
87840021e180
87840021e180
83840021c180
818400218180
800400200180
800400200180
ffffffffff80
7fffffffff00
ENDCHAR
STARTCHAR HorizontalScrollbarE
ENCODING 11
SWIDTH 96 0
DWIDTH 41 0
BBX 41 13 0 -13
BITMAP
7fffffffff00
fffc00200180
fffc00200180
fe7c00218180
fc7c0021c180
f87c0021e180
f87c0021e180
fc7c0021c180
fe7c00218180
fffc00200180
fffc00200180
ffffffffff80
7fffffffff00
ENDCHAR
STARTCHAR HorizontalScrollbarE
ENCODING 12
SWIDTH 96 0
DWIDTH 41 0
BBX 41 13 0 -13
BITMAP
7fffffffff00
8007ffe00180
8007ffe00180
8187ffe18180
8387ffe1c180
8787ffe1e180
8787ffe1e180
8387ffe1c180
8187ffe18180
8007ffe00180
8007ffe00180
ffffffffff80
7fffffffff00
ENDCHAR
STARTCHAR HorizontalScrollbarE
ENCODING 13
SWIDTH 96 0
DWIDTH 41 0
BBX 41 13 0 -13
BITMAP
7fffffffff00
8004003fff80
8004003fff80
8184003e7f80
8384003e3f80
8784003e1f80
8784003e1f80
8384003e3f80
8184003e7f80
8004003fff80
8004003fff80
ffffffffff80
7fffffffff00
ENDCHAR
STARTCHAR HorizontalScrollbarR
ENCODING 14
SWIDTH 96 0
DWIDTH 28 0
BBX 28 13 0 -13
BITMAP
7fffffe0
80040030
80040030
81843030
83843830
87843c30
87843c30
83843830
81843030
80040030
80040030
fffffff0
7fffffe0
ENDCHAR
STARTCHAR HorizontalScrollbarR
ENCODING 15
SWIDTH 96 0
DWIDTH 28 0
BBX 28 13 0 -13
BITMAP
7fffffe0
fffc0030
fffc0030
fe7c3030
fc7c3830
f87c3c30
f87c3c30
fc7c3830
fe7c3030
fffc0030
fffc0030
fffffff0
7fffffe0
ENDCHAR
STARTCHAR HorizontalScrollbarR
ENCODING 16
SWIDTH 96 0
DWIDTH 28 0
BBX 28 13 0 -13
BITMAP
7fffffe0
8007fff0
8007fff0
8187cff0
8387c7f0
8787c3f0
8787c3f0
8387c7f0
8187cff0
8007fff0
8007fff0
fffffff0
7fffffe0
ENDCHAR
STARTCHAR HorizontalScrollbarA
ENCODING 17
SWIDTH 96 0
DWIDTH 5 0
BBX 5 13 0 -13
BITMAP
f8
88
88
88
88
88
88
88
88
88
88
88
f8
ENDCHAR
STARTCHAR HorizontalScrollbarA
ENCODING 18
SWIDTH 96 0
DWIDTH 5 0
BBX 5 13 0 -13
BITMAP
f8
f8
f8
f8
f8
f8
f8
f8
f8
f8
f8
f8
f8
ENDCHAR
STARTCHAR pushpin-out-outline2
ENCODING 19
SWIDTH 42 0
DWIDTH 26 0
BBX 26 12 0 -12
BITMAP
00070000
00048180
00048240
0004fe40
00048240
07fc8240
03fc8240
0004fe40
6004ffc0
900783c0
90078180
60070000
ENDCHAR
STARTCHAR pushpin-in-outline2d
ENCODING 20
SWIDTH 42 0
DWIDTH 13 0
BBX 13 13 0 -13
BITMAP
01c0
0e30
3410
4808
4808
8808
8c10
8630
c7f0
41e0
70e0
ffc0
cf00
ENDCHAR
STARTCHAR def_pushpin-out
ENCODING 21
SWIDTH 42 0
DWIDTH 26 0
BBX 26 15 0 -15
BITMAP
00070000
00048180
00048240
0004fe40
00048240
07fc8240
0004fe40
3c04ffc0
420783c0
99078180
a5070000
a5000000
99000000
42000000
3c000000
ENDCHAR
STARTCHAR abbmenubu
ENCODING 22
SWIDTH 42 0
DWIDTH 14 0
BBX 14 13 0 -13
BITMAP
7ff0
8008
800c
9fcc
904c
888c
888c
850c
850c
820c
800c
7ffc
3ff8
ENDCHAR
STARTCHAR abbmenubu
ENCODING 23
SWIDTH 42 0
DWIDTH 14 0
BBX 14 13 0 -13
BITMAP
7ff0
8008
bfec
a02c
afac
b76c
b76c
baec
baec
bdec
800c
7ffc
3ff8
ENDCHAR
STARTCHAR buttonupleft
ENCODING 24
SWIDTH 42 0
DWIDTH 8 0
BBX 8 18 0 -18
BITMAP
03
0c
10
20
40
40
80
80
80
80
80
40
40
20
00
00
00
00
ENDCHAR
STARTCHAR buttonlowleft
ENCODING 25
SWIDTH 42 0
DWIDTH 8 0
BBX 8 17 0 -17
BITMAP
00
00
00
00
00
00
00
00
00
00
00
00
00
00
10
0c
03
ENDCHAR
STARTCHAR buttonleftendfill
ENCODING 26
SWIDTH 42 0
DWIDTH 8 0
BBX 8 16 0 -16
BITMAP
00
03
0f
1f
3f
3f
7f
7f
7f
7f
7f
3f
3f
1f
0f
03
ENDCHAR
STARTCHAR buttonlowright
ENCODING 27
SWIDTH 42 0
DWIDTH 8 0
BBX 8 17 0 -17
BITMAP
00
00
00
04
02
02
01
01
01
01
01
02
02
04
08
30
c0
ENDCHAR
STARTCHAR buttonlowleft
ENCODING 28
SWIDTH 42 0
DWIDTH 5 0
BBX 5 17 0 -17
BITMAP
c0
30
08
00
00
00
00
00
00
00
00
00
00
00
00
00
00
ENDCHAR
STARTCHAR buttRIRNDFILL
ENCODING 29
SWIDTH 42 0
DWIDTH 7 0
BBX 7 16 0 -16
BITMAP
00
c0
f0
f8
fc
fc
fe
fe
fe
fe
fe
fc
fc
f8
f0
c0
ENDCHAR
STARTCHAR buttonlowleft
ENCODING 30
SWIDTH 42 0
DWIDTH 1 0
BBX 1 17 0 -17
BITMAP
80
00
00
00
00
00
00
00
00
00
00
00
00
00
00
00
00
ENDCHAR
STARTCHAR buttonlowleft
ENCODING 31
SWIDTH 42 0
DWIDTH 2 0
BBX 2 17 0 -17
BITMAP
c0
00
00
00
00
00
00
00
00
00
00
00
00
00
00
00
00
ENDCHAR
STARTCHAR buttonlowleft
ENCODING 32
SWIDTH 42 0
DWIDTH 4 0
BBX 4 17 0 -17
BITMAP
f0
00
00
00
00
00
00
00
00
00
00
00
00
00
00
00
00
ENDCHAR
STARTCHAR buttonlowleft
ENCODING 33
SWIDTH 42 0
DWIDTH 8 0
BBX 8 17 0 -17
BITMAP
ff
00
00
00
00
00
00
00
00
00
00
00
00
00
00
00
00
ENDCHAR
STARTCHAR buttonlowleft
ENCODING 34
SWIDTH 42 0
DWIDTH 16 0
BBX 16 17 0 -17
BITMAP
ffff
0000
0000
0000
0000
0000
0000
0000
0000
0000
0000
0000
0000
0000
0000
0000
0000
ENDCHAR
STARTCHAR buttonlowleft
ENCODING 35
SWIDTH 42 0
DWIDTH 1 0
BBX 1 17 0 -17
BITMAP
00
00
00
00
00
00
00
00
00
00
00
00
00
00
00
00
80
ENDCHAR
STARTCHAR buttonlowleft
ENCODING 36
SWIDTH 42 0
DWIDTH 2 0
BBX 2 17 0 -17
BITMAP
00
00
00
00
00
00
00
00
00
00
00
00
00
00
00
00
c0
ENDCHAR
STARTCHAR buttonlowleft
ENCODING 37
SWIDTH 42 0
DWIDTH 4 0
BBX 4 17 0 -17
BITMAP
00
00
00
00
00
00
00
00
00
00
00
00
00
00
00
00
f0
ENDCHAR
STARTCHAR buttonlowleft
ENCODING 38
SWIDTH 42 0
DWIDTH 8 0
BBX 8 17 0 -17
BITMAP
00
00
00
00
00
00
00
00
00
00
00
00
00
00
00
00
ff
ENDCHAR
STARTCHAR buttonlowleft
ENCODING 39
SWIDTH 42 0
DWIDTH 16 0
BBX 16 17 0 -17
BITMAP
0000
0000
0000
0000
0000
0000
0000
0000
0000
0000
0000
0000
0000
0000
0000
0000
ffff
ENDCHAR
STARTCHAR buttonFILL1
ENCODING 40
SWIDTH 42 0
DWIDTH 1 0
BBX 1 17 0 -17
BITMAP
00
80
80
80
80
80
80
80
80
80
80
80
80
80
80
80
00
ENDCHAR
STARTCHAR buttonFILL1
ENCODING 41
SWIDTH 42 0
DWIDTH 2 0
BBX 2 17 0 -17
BITMAP
00
c0
c0
c0
c0
c0
c0
c0
c0
c0
c0
c0
c0
c0
c0
c0
00
ENDCHAR
STARTCHAR buttonFILL1
ENCODING 42
SWIDTH 42 0
DWIDTH 4 0
BBX 4 17 0 -17
BITMAP
00
f0
f0
f0
f0
f0
f0
f0
f0
f0
f0
f0
f0
f0
f0
f0
00
ENDCHAR
STARTCHAR buttonFILL1
ENCODING 43
SWIDTH 42 0
DWIDTH 8 0
BBX 8 17 0 -17
BITMAP
00
ff
ff
ff
ff
ff
ff
ff
ff
ff
ff
ff
ff
ff
ff
ff
00
ENDCHAR
STARTCHAR buttonFILL1
ENCODING 44
SWIDTH 42 0
DWIDTH 16 0
BBX 16 17 0 -17
BITMAP
0000
ffff
ffff
ffff
ffff
ffff
ffff
ffff
ffff
ffff
ffff
ffff
ffff
ffff
ffff
ffff
0000
ENDCHAR
STARTCHAR VERTMEMA-UL
ENCODING 45
SWIDTH 42 0
DWIDTH 0 0
BBX 7 7 0 -7
BITMAP
fe
80
40
40
20
20
00
ENDCHAR
STARTCHAR VERTMEMA-UL
ENCODING 46
SWIDTH 42 0
DWIDTH 0 0
BBX 7 7 0 -7
BITMAP
00
02
04
04
08
08
10
ENDCHAR
STARTCHAR VERTMEMA-UL
ENCODING 47
SWIDTH 42 0
DWIDTH 7 0
BBX 7 7 0 -7
BITMAP
00
7c
38
38
10
10
00
ENDCHAR
STARTCHAR HoriMeMa-UL
ENCODING 48
SWIDTH 42 0
DWIDTH 0 0
BBX 7 7 0 -7
BITMAP
c0
b0
8c
80
80
80
80
ENDCHAR
STARTCHAR HoriMeMaLR
ENCODING 49
SWIDTH 42 0
DWIDTH 0 0
BBX 7 7 0 -7
BITMAP
00
00
00
02
0c
30
40
ENDCHAR
STARTCHAR HoriMeMa_fill
ENCODING 50
SWIDTH 42 0
DWIDTH 7 0
BBX 7 7 0 -7
BITMAP
00
40
70
7c
70
40
00
ENDCHAR
STARTCHAR AbbMenuBu-UL
ENCODING 51
SWIDTH 42 0
DWIDTH 14 0
BBX 14 12 0 -12
BITMAP
7ff8
8000
8000
8000
8000
8000
8000
8000
8000
8000
8000
0000
ENDCHAR
STARTCHAR AbbMenuBu-LR
ENCODING 52
SWIDTH 42 0
DWIDTH 14 0
BBX 14 12 0 -12
BITMAP
0000
0004
0004
0004
0004
0004
0004
0004
0004
0004
0004
7ff8
ENDCHAR
STARTCHAR AbbMenuBu-Fill
ENCODING 53
SWIDTH 42 0
DWIDTH 14 0
BBX 14 12 0 -12
BITMAP
0000
7ff8
7ff8
7ff8
7ff8
7ff8
7ff8
7ff8
7ff8
7ff8
7ff8
0000
ENDCHAR
STARTCHAR VertScro_UL
ENCODING 54
SWIDTH 42 0
DWIDTH 13 0
BBX 13 41 0 -41
BITMAP
7ff0
8000
8000
8000
8000
8000
8000
8000
8000
8000
8000
8000
8000
ffe0
8000
8000
8000
8000
8000
8000
8000
8000
8000
8000
8000
8000
8000
8000
8000
8000
8000
8000
8000
8000
8000
8000
8000
8000
8000
8000
0000
ENDCHAR
STARTCHAR VertSc-LR
ENCODING 55
SWIDTH 42 0
DWIDTH 12 0
BBX 12 40 0 -40
BITMAP
0000
0010
0010
0010
0010
0610
0f10
1f90
1f90
0010
0010
0010
0010
0010
0010
0010
0010
0010
0010
0010
0010
0010
0010
0010
0010
0010
7ff0
0010
0010
0010
0010
1f90
1f90
0f10
0610
0010
0010
0010
0010
7ff0
ENDCHAR
STARTCHAR Vert-sb-top-fill
ENCODING 56
SWIDTH 42 0
DWIDTH 13 0
BBX 13 12 0 -12
BITMAP
8008
7fe0
7fe0
7fe0
7fe0
79e0
70e0
6060
6060
7fe0
7fe0
7fe0
ENDCHAR
STARTCHAR HoriSb-UL
ENCODING 57
SWIDTH 42 0
DWIDTH 40 0
BBX 40 12 0 -12
BITMAP
ffffffffff
8004000000
8004000000
8004000000
8004000000
8004000000
8004000000
8004000000
8004000000
8004000000
8004000000
8000000000
ENDCHAR
STARTCHAR HorizSc-LR
ENCODING 58
SWIDTH 42 0
DWIDTH 40 0
BBX 40 12 0 -12
BITMAP
0000000000
0000002001
0000002001
0300002181
07000021c1
0f000021e1
0f000021e1
07000021c1
0300002181
0000002001
0000002001
7fffffffff
ENDCHAR
STARTCHAR Vert-sb-bot-fill
ENCODING 59
SWIDTH 42 0
DWIDTH 11 0
BBX 11 13 0 -13
BITMAP
0000
7fe0
7fe0
7fe0
7fe0
6060
6060
70e0
79e0
7fe0
7fe0
7fe0
7fe0
ENDCHAR
STARTCHAR HoriSlidContr-UL
ENCODING 60
SWIDTH 42 0
DWIDTH 10 0
BBX 10 13 0 -13
BITMAP
7f80
8000
8000
8000
8000
8000
8000
8000
8000
8000
8000
8000
0000
ENDCHAR
STARTCHAR HoriSlidContr-LR
ENCODING 61
SWIDTH 42 0
DWIDTH 10 0
BBX 10 13 0 -13
BITMAP
0000
0040
0040
0040
0040
0040
0040
0040
0040
0040
0040
0040
7f80
ENDCHAR
STARTCHAR HoriSlidContr-Fill
ENCODING 62
SWIDTH 42 0
DWIDTH 10 0
BBX 10 13 0 -13
BITMAP
8040
7f80
7f80
7f80
7f80
7f80
7f80
7f80
7f80
7f80
7f80
7f80
8040
ENDCHAR
STARTCHAR HorSlider-UL
ENCODING 63
SWIDTH 42 0
DWIDTH 3 0
BBX 3 4 0 -4
BITMAP
60
80
80
00
ENDCHAR
STARTCHAR HorSliderLL
ENCODING 64
SWIDTH 42 0
DWIDTH 3 0
BBX 3 4 0 -4
BITMAP
00
00
00
60
ENDCHAR
STARTCHAR HorizSliderUR
ENCODING 65
SWIDTH 42 0
DWIDTH 3 0
BBX 3 4 0 -4
BITMAP
c0
00
00
00
ENDCHAR
STARTCHAR HorSlider-LR
ENCODING 66
SWIDTH 42 0
DWIDTH 3 0
BBX 3 4 0 -4
BITMAP
00
20
20
c0
ENDCHAR
STARTCHAR HorSliderBot-1
ENCODING 67
SWIDTH 42 0
DWIDTH 1 0
BBX 1 4 0 -4
BITMAP
00
00
00
80
ENDCHAR
STARTCHAR HorSliderBot-2
ENCODING 68
SWIDTH 42 0
DWIDTH 2 0
BBX 2 4 0 -4
BITMAP
00
00
00
c0
ENDCHAR
STARTCHAR HorSliderBot-4
ENCODING 69
SWIDTH 42 0
DWIDTH 4 0
BBX 4 4 0 -4
BITMAP
00
00
00
f0
ENDCHAR
STARTCHAR HorSliderBot-8
ENCODING 70
SWIDTH 42 0
DWIDTH 8 0
BBX 8 4 0 -4
BITMAP
00
00
00
ff
ENDCHAR
STARTCHAR HorSliderBot-16
ENCODING 71
SWIDTH 42 0
DWIDTH 16 0
BBX 16 4 0 -4
BITMAP
0000
0000
0000
ffff
ENDCHAR
STARTCHAR HorSliderFill-1
ENCODING 72
SWIDTH 42 0
DWIDTH 1 0
BBX 1 4 0 -4
BITMAP
00
80
80
00
ENDCHAR
STARTCHAR HorSliderFill-2
ENCODING 73
SWIDTH 42 0
DWIDTH 2 0
BBX 2 4 0 -4
BITMAP
00
c0
c0
00
ENDCHAR
STARTCHAR HorSliderFill-4
ENCODING 74
SWIDTH 42 0
DWIDTH 4 0
BBX 4 4 0 -4
BITMAP
00
f0
f0
00
ENDCHAR
STARTCHAR HorSliderFill-8
ENCODING 75
SWIDTH 42 0
DWIDTH 8 0
BBX 8 4 0 -4
BITMAP
00
ff
ff
00
ENDCHAR
STARTCHAR HorSliderFill-16
ENCODING 76
SWIDTH 42 0
DWIDTH 16 0
BBX 16 4 0 -4
BITMAP
0000
ffff
ffff
0000
ENDCHAR
STARTCHAR HorSlidLeftEndCapfil
ENCODING 77
SWIDTH 42 0
DWIDTH 3 0
BBX 3 4 0 -4
BITMAP
00
60
60
00
ENDCHAR
STARTCHAR HorSlidRightEndcapFi
ENCODING 78
SWIDTH 42 0
DWIDTH 2 0
BBX 3 3 0 -3
BITMAP
00
c0
c0
ENDCHAR
STARTCHAR VertSlider-TL
ENCODING 79
SWIDTH 42 0
DWIDTH 4 0
BBX 4 3 0 -3
BITMAP
60
80
80
ENDCHAR
STARTCHAR VertSlider-TR
ENCODING 80
SWIDTH 42 0
DWIDTH 4 0
BBX 4 3 0 -3
BITMAP
00
10
10
ENDCHAR
STARTCHAR VertSlider-Tfill
ENCODING 81
SWIDTH 42 0
DWIDTH 3 0
BBX 3 3 0 -3
BITMAP
00
60
60
ENDCHAR
STARTCHAR VertSlider-LL
ENCODING 82
SWIDTH 42 0
DWIDTH 4 0
BBX 4 3 0 -3
BITMAP
80
80
00
ENDCHAR
STARTCHAR VertSlider-LR
ENCODING 83
SWIDTH 42 0
DWIDTH 4 0
BBX 4 3 0 -3
BITMAP
10
10
60
ENDCHAR
STARTCHAR VertSlider-BotFill
ENCODING 84
SWIDTH 42 0
DWIDTH 4 0
BBX 4 3 0 -3
BITMAP
60
60
00
ENDCHAR
STARTCHAR VertSliderContr-TL
ENCODING 85
SWIDTH 42 0
DWIDTH 13 0
BBX 13 10 0 -10
BITMAP
7ff0
8000
8000
8000
8000
8000
8000
8000
8000
0000
ENDCHAR
STARTCHAR VertSliderContr-TL
ENCODING 86
SWIDTH 42 0
DWIDTH 13 0
BBX 13 10 0 -10
BITMAP
0000
0008
0008
0008
0008
0008
0008
0008
0008
7ff0
ENDCHAR
STARTCHAR VertSliderContrFill
ENCODING 87
SWIDTH 42 0
DWIDTH 13 0
BBX 13 10 0 -10
BITMAP
8008
7ff0
7ff0
7ff0
7ff0
7ff0
7ff0
7ff0
7ff0
8008
ENDCHAR
STARTCHAR ULREsizeUL
ENCODING 88
SWIDTH 42 0
DWIDTH 10 0
BBX 10 10 0 -10
BITMAP
ffc0
8000
8000
8000
8000
8000
8000
8000
8000
8000
ENDCHAR
STARTCHAR ULREsizeLR
ENCODING 89
SWIDTH 42 0
DWIDTH 10 0
BBX 10 10 0 -10
BITMAP
0000
0040
0040
0040
0fc0
0800
0800
0800
0800
7800
ENDCHAR
STARTCHAR ULREsizeFill
ENCODING 90
SWIDTH 42 0
DWIDTH 10 0
BBX 10 10 0 -10
BITMAP
0000
7f80
7f80
7f80
7000
7000
7000
7000
7000
0000
ENDCHAR
STARTCHAR URresizeUL
ENCODING 91
SWIDTH 42 0
DWIDTH 10 0
BBX 10 10 0 -10
BITMAP
ffc0
8000
8000
8000
8000
0400
0400
0400
0400
0400
ENDCHAR
STARTCHAR URresizeLR
ENCODING 92
SWIDTH 42 0
DWIDTH 10 0
BBX 10 10 0 -10
BITMAP
0000
0040
0040
0040
7c40
0040
0040
0040
0040
03c0
ENDCHAR
STARTCHAR URresizeFill
ENCODING 93
SWIDTH 42 0
DWIDTH 10 0
BBX 10 10 0 -10
BITMAP
0000
7f80
7f80
7f80
0380
0380
0380
0380
0380
0000
ENDCHAR
STARTCHAR LRresizeUL
ENCODING 94
SWIDTH 42 0
DWIDTH 10 0
BBX 10 10 0 -10
BITMAP
07c0
0400
0400
0400
0400
fc00
8000
8000
8000
8000
ENDCHAR
STARTCHAR LRresizeLR
ENCODING 95
SWIDTH 42 0
DWIDTH 10 0
BBX 10 10 0 -10
BITMAP
0000
0040
0040
0040
0040
0040
0040
0040
0040
7fc0
ENDCHAR
STARTCHAR LRresizeUL
ENCODING 96
SWIDTH 42 0
DWIDTH 10 0
BBX 10 10 0 -10
BITMAP
0000
0380
0380
0380
0380
0380
7f80
7f80
7f80
0000
ENDCHAR
STARTCHAR LLresizeUL
ENCODING 97
SWIDTH 42 0
DWIDTH 10 0
BBX 10 10 0 -10
BITMAP
f800
8000
8000
8000
8000
8fc0
8000
8000
8000
8000
ENDCHAR
STARTCHAR LLresizeLR
ENCODING 98
SWIDTH 42 0
DWIDTH 10 0
BBX 10 10 0 -10
BITMAP
0000
0800
0800
0800
0800
0000
0040
0040
0040
7fc0
ENDCHAR
STARTCHAR LLresizefill
ENCODING 99
SWIDTH 42 0
DWIDTH 10 0
BBX 10 11 0 -11
BITMAP
0000
7000
7000
7000
7000
7000
7f80
7f80
7f80
0000
0000
ENDCHAR
STARTCHAR PushPinOutTop
ENCODING 100
SWIDTH 42 0
DWIDTH 26 0
BBX 26 12 0 -12
BITMAP
00070000
00040180
00040200
00047e00
00040200
07fc0200
00040200
00040200
00040000
10040000
10040000
60040000
ENDCHAR
STARTCHAR PushPinOutBottom
ENCODING 101
SWIDTH 42 0
DWIDTH 26 0
BBX 26 12 0 -12
BITMAP
00000000
00008000
00008040
00008040
00008040
00008040
03f88240
0000fe40
6000ffc0
8003c3c0
80038180
00030000
ENDCHAR
STARTCHAR PushPinOutFill
ENCODING 102
SWIDTH 42 0
DWIDTH 26 0
BBX 26 12 0 -12
BITMAP
00000000
00030000
00030180
00030180
00037d80
00037d80
00037d80
00030180
00030000
60000000
60000000
00000000
ENDCHAR
STARTCHAR PushPinInTop
ENCODING 103
SWIDTH 96 0
DWIDTH 13 0
BBX 13 13 0 -13
BITMAP
01c0
0e20
3400
4800
4800
8800
8c00
8000
c000
4000
4000
8000
0000
ENDCHAR
STARTCHAR PushPinInBottom
ENCODING 104
SWIDTH 96 0
DWIDTH 13 0
BBX 13 13 0 -13
BITMAP
0000
0010
0010
0008
0008
0008
0010
0630
07f0
01e0
30e0
7fc0
cf00
ENDCHAR
STARTCHAR PushPinInMiddle
ENCODING 105
SWIDTH 96 0
DWIDTH 13 0
BBX 13 13 0 -13
BITMAP
0000
01c0
0be0
37f0
37f0
77f0
73e0
79c0
3800
3e00
0f00
0000
0000
ENDCHAR
STARTCHAR DefButLeftEndCap
ENCODING 106
SWIDTH 96 0
DWIDTH 8 0
BBX 8 16 0 -16
BITMAP
00
00
01
06
08
10
10
20
20
20
10
10
08
06
01
00
ENDCHAR
STARTCHAR DefButRightEndcap
ENCODING 107
SWIDTH 96 0
DWIDTH 8 0
BBX 8 16 0 -16
BITMAP
00
00
80
60
10
08
08
04
04
04
08
08
10
60
80
00
ENDCHAR
STARTCHAR DefButMiddle-1
ENCODING 108
SWIDTH 96 0
DWIDTH 1 0
BBX 1 16 0 -16
BITMAP
00
00
80
00
00
00
00
00
00
00
00
00
00
00
80
00
ENDCHAR
STARTCHAR DefButMiddle-2
ENCODING 109
SWIDTH 96 0
DWIDTH 2 0
BBX 2 16 0 -16
BITMAP
00
00
c0
00
00
00
00
00
00
00
00
00
00
00
c0
00
ENDCHAR
STARTCHAR DefButMiddle-4
ENCODING 110
SWIDTH 96 0
DWIDTH 4 0
BBX 4 16 0 -16
BITMAP
00
00
f0
00
00
00
00
00
00
00
00
00
00
00
f0
00
ENDCHAR
STARTCHAR DefButMiddle-8
ENCODING 111
SWIDTH 96 0
DWIDTH 8 0
BBX 8 16 0 -16
BITMAP
00
00
ff
00
00
00
00
00
00
00
00
00
00
00
ff
00
ENDCHAR
STARTCHAR DefButMiddle-16
ENCODING 112
SWIDTH 96 0
DWIDTH 16 0
BBX 16 16 0 -16
BITMAP
0000
0000
ffff
0000
0000
0000
0000
0000
0000
0000
0000
0000
0000
0000
ffff
0000
ENDCHAR
STARTCHAR Baseoff-SpecialChar
ENCODING 113
SWIDTH 42 0
DWIDTH 1 0
BBX 1 6 0 -6
BITMAP
80
80
80
80
80
80
ENDCHAR
STARTCHAR UncheckedBoxUL
ENCODING 114
SWIDTH 42 0
DWIDTH 13 0
BBX 13 13 0 -13
BITMAP
0000
ffe0
8000
8000
8000
8000
8000
8000
8000
8000
8000
8000
0000
ENDCHAR
STARTCHAR UncheckedBoxLR
ENCODING 115
SWIDTH 42 0
DWIDTH 13 0
BBX 13 12 0 -12
BITMAP
0000
0000
0020
0020
0020
0020
0020
0020
0020
0020
0020
7fe0
ENDCHAR
STARTCHAR UncheckedBoxFill
ENCODING 116
SWIDTH 42 0
DWIDTH 13 0
BBX 13 12 0 -12
BITMAP
0000
0000
7fc0
7fc0
7fc0
7fc0
7fc0
7fc0
7fc0
7fc0
7fc0
0000
ENDCHAR
STARTCHAR CheckMark
ENCODING 117
SWIDTH 42 0
DWIDTH 13 0
BBX 13 12 0 -12
BITMAP
0008
0030
0060
00c0
1180
3b80
7f00
3f00
1e00
0e00
0400
0000
ENDCHAR
STARTCHAR CheckedBoxFill
ENCODING 118
SWIDTH 42 0
DWIDTH 14 0
BBX 14 12 0 -12
BITMAP
0000
00c0
7f80
7f20
6e60
4440
00c0
40c0
61c0
71c0
7bc0
0000
ENDCHAR
STARTCHAR UncheckedBoxOutline
ENCODING 119
SWIDTH 42 0
DWIDTH 13 0
BBX 13 13 0 -13
BITMAP
0000
ffe0
8020
8020
8020
8020
8020
8020
8020
8020
8020
ffe0
0000
ENDCHAR
STARTCHAR HorizGauge-UL
ENCODING 120
SWIDTH 42 0
DWIDTH 4 0
BBX 4 11 0 -11
BITMAP
10
60
40
80
80
80
80
40
40
00
00
ENDCHAR
STARTCHAR HorizGauge-LL
ENCODING 121
SWIDTH 42 0
DWIDTH 4 0
BBX 4 10 0 -10
BITMAP
00
00
00
00
00
00
00
00
20
10
ENDCHAR
STARTCHAR HorizGauge-UR
ENCODING 122
SWIDTH 42 0
DWIDTH 4 0
BBX 4 10 0 -10
BITMAP
80
40
00
00
00
00
00
00
00
00
ENDCHAR
STARTCHAR HorizGauge-LR
ENCODING 123
SWIDTH 42 0
DWIDTH 4 0
BBX 4 11 0 -11
BITMAP
00
00
20
20
10
10
10
10
20
60
80
ENDCHAR
STARTCHAR HorizGauge-Bot-1
ENCODING 124
SWIDTH 42 0
DWIDTH 1 0
BBX 1 10 0 -10
BITMAP
00
00
00
00
00
00
00
00
00
80
ENDCHAR
STARTCHAR HorizGauge-Bot-2
ENCODING 125
SWIDTH 42 0
DWIDTH 2 0
BBX 2 10 0 -10
BITMAP
00
00
00
00
00
00
00
00
00
c0
ENDCHAR
STARTCHAR HorizGauge-Bot-4
ENCODING 126
SWIDTH 42 0
DWIDTH 4 0
BBX 4 10 0 -10
BITMAP
00
00
00
00
00
00
00
00
00
f0
ENDCHAR
STARTCHAR HorizGauge-Bot-8
ENCODING 127
SWIDTH 42 0
DWIDTH 8 0
BBX 8 10 0 -10
BITMAP
00
00
00
00
00
00
00
00
00
ff
ENDCHAR
STARTCHAR HorizGauge-Bot-16
ENCODING 128
SWIDTH 42 0
DWIDTH 16 0
BBX 16 10 0 -10
BITMAP
0000
0000
0000
0000
0000
0000
0000
0000
0000
ffff
ENDCHAR
STARTCHAR VertGauge-UL
ENCODING 129
SWIDTH 42 0
DWIDTH 10 0
BBX 10 4 0 -4
BITMAP
1e00
6000
4000
8000
ENDCHAR
STARTCHAR VertGauge-UR
ENCODING 130
SWIDTH 42 0
DWIDTH 10 0
BBX 10 4 0 -4
BITMAP
0000
0180
0080
0040
ENDCHAR
STARTCHAR VertGauge-LL
ENCODING 131
SWIDTH 42 0
DWIDTH 10 0
BBX 10 4 0 -4
BITMAP
8000
4000
6000
0000
ENDCHAR
STARTCHAR VertGauge-LR
ENCODING 132
SWIDTH 42 0
DWIDTH 10 0
BBX 10 4 0 -4
BITMAP
0040
0080
0180
1e00
ENDCHAR
STARTCHAR VertAbbrScrobarUL
ENCODING 133
SWIDTH 42 0
DWIDTH 13 0
BBX 13 27 0 -27
BITMAP
7ff0
8000
8000
8000
8000
8000
8000
8000
8000
8000
8000
8000
8000
8000
8000
8000
8000
8000
8000
8000
8000
8000
8000
8000
8000
8000
8000
ENDCHAR
STARTCHAR VertAbbrScrobarLR
ENCODING 134
SWIDTH 42 0
DWIDTH 13 0
BBX 12 27 0 -27
BITMAP
0000
0010
0010
0010
0010
0610
0f10
1f90
1f90
0010
0010
0010
0010
7ff0
0010
0010
0010
0010
1f90
1f90
0f10
0610
0010
0010
0010
0010
7ff0
ENDCHAR
STARTCHAR Horiz-sb-rightbox-fi
ENCODING 135
SWIDTH 42 0
DWIDTH 28 0
BBX 14 12 0 -12
BITMAP
0000
7ff8
7ff8
79f8
78f8
7878
7878
78f8
79f8
7ff8
7ff8
0000
ENDCHAR
STARTCHAR HorizAbbScroBa-UL
ENCODING 136
SWIDTH 42 0
DWIDTH 28 0
BBX 28 13 0 -13
BITMAP
7fffffe0
80000000
80000000
80000000
80000000
80000000
80000000
80000000
80000000
80000000
80000000
80000000
00000000
ENDCHAR
STARTCHAR HorizAbbScroBa-LR
ENCODING 137
SWIDTH 42 0
DWIDTH 28 0
BBX 27 12 0 -12
BITMAP
00000000
00040020
00040020
01843020
03843820
07843c20
07843c20
03843820
01843020
00040020
00040020
7fffffe0
ENDCHAR
STARTCHAR Horiz-sb-leftbox-fil
ENCODING 138
SWIDTH 42 0
DWIDTH 13 0
BBX 13 13 0 -13
BITMAP
8000
7ff8
7ff8
7e78
7c78
7878
7878
7c78
7e78
7ff8
7ff8
0000
8000
ENDCHAR
STARTCHAR ButtOutlineLeftEndca
ENCODING 139
SWIDTH 42 0
DWIDTH 8 0
BBX 8 18 0 -18
BITMAP
03
0c
10
20
40
40
80
80
80
80
80
40
40
20
10
0c
07
01
ENDCHAR
STARTCHAR ButtOutRightEndcap
ENCODING 140
SWIDTH 42 0
DWIDTH 9 0
BBX 9 18 0 -18
BITMAP
c000
3000
0800
0400
0200
0300
0100
0180
0180
0180
0180
0380
0300
0700
0e00
3c00
f800
e000
ENDCHAR
STARTCHAR ButtOutlineMiddle-1
ENCODING 141
SWIDTH 42 0
DWIDTH 1 0
BBX 1 18 0 -18
BITMAP
80
00
00
00
00
00
00
00
00
00
00
00
00
00
00
00
80
80
ENDCHAR
STARTCHAR ButtOutlineMiddle-2
ENCODING 142
SWIDTH 42 0
DWIDTH 2 0
BBX 2 18 0 -18
BITMAP
c0
00
00
00
00
00
00
00
00
00
00
00
00
00
00
00
c0
c0
ENDCHAR
STARTCHAR ButtOutlineMiddle-4
ENCODING 143
SWIDTH 42 0
DWIDTH 4 0
BBX 4 18 0 -18
BITMAP
f0
00
00
00
00
00
00
00
00
00
00
00
00
00
00
00
f0
f0
ENDCHAR
STARTCHAR ButtOutlineMiddle-8
ENCODING 144
SWIDTH 42 0
DWIDTH 8 0
BBX 8 18 0 -18
BITMAP
ff
00
00
00
00
00
00
00
00
00
00
00
00
00
00
00
ff
ff
ENDCHAR
STARTCHAR ButtOutlineMiddle-16
ENCODING 145
SWIDTH 42 0
DWIDTH 16 0
BBX 16 18 0 -18
BITMAP
ffff
0000
0000
0000
0000
0000
0000
0000
0000
0000
0000
0000
0000
0000
0000
0000
ffff
ffff
ENDCHAR
STARTCHAR ButtOutlineLeftEndca
ENCODING 146
SWIDTH 42 0
DWIDTH 8 0
BBX 8 18 0 -18
BITMAP
00
00
01
07
0f
1f
1f
3f
3f
3f
1f
1f
0f
07
01
00
00
00
ENDCHAR
STARTCHAR ButtOutlineRightEndC
ENCODING 147
SWIDTH 42 0
DWIDTH 8 0
BBX 8 18 0 -18
BITMAP
00
00
80
e0
f0
f8
f8
fc
fc
fc
f8
f8
f0
e0
80
00
00
00
ENDCHAR
STARTCHAR ButtOutlineMiddleFil
ENCODING 148
SWIDTH 42 0
DWIDTH 1 0
BBX 1 18 0 -18
BITMAP
00
00
80
80
80
80
80
80
80
80
80
80
80
80
80
00
00
00
ENDCHAR
STARTCHAR ButtOutlineMiddleFil
ENCODING 149
SWIDTH 42 0
DWIDTH 2 0
BBX 2 18 0 -18
BITMAP
00
00
c0
c0
c0
c0
c0
c0
c0
c0
c0
c0
c0
c0
c0
00
00
00
ENDCHAR
STARTCHAR ButtOutlineMiddleFil
ENCODING 150
SWIDTH 42 0
DWIDTH 4 0
BBX 4 18 0 -18
BITMAP
00
00
f0
f0
f0
f0
f0
f0
f0
f0
f0
f0
f0
f0
f0
00
00
00
ENDCHAR
STARTCHAR ButtOutlineMiddleFil
ENCODING 151
SWIDTH 42 0
DWIDTH 8 0
BBX 8 18 0 -18
BITMAP
00
00
ff
ff
ff
ff
ff
ff
ff
ff
ff
ff
ff
ff
ff
00
00
00
ENDCHAR
STARTCHAR ButtOutlineMiddleFil
ENCODING 152
SWIDTH 42 0
DWIDTH 16 0
BBX 16 18 0 -18
BITMAP
0000
0000
ffff
ffff
ffff
ffff
ffff
ffff
ffff
ffff
ffff
ffff
ffff
ffff
ffff
0000
0000
0000
ENDCHAR
STARTCHAR DefMenuButtonLeftEnd
ENCODING 153
SWIDTH 42 0
DWIDTH 8 0
BBX 8 16 0 -16
BITMAP
07
18
20
40
40
80
80
80
80
80
80
40
40
20
18
07
ENDCHAR
STARTCHAR DefMenuButtonRightEn
ENCODING 154
SWIDTH 42 0
DWIDTH 8 0
BBX 8 16 0 -16
BITMAP
e0
18
04
02
02
01
01
01
01
01
01
02
02
04
18
e0
ENDCHAR
STARTCHAR MenuDefOutlMiddle-1
ENCODING 155
SWIDTH 42 0
DWIDTH 1 0
BBX 1 16 0 -16
BITMAP
80
00
00
00
00
00
00
00
00
00
00
00
00
00
00
80
ENDCHAR
STARTCHAR MenuDefOutlMiddle-2
ENCODING 156
SWIDTH 42 0
DWIDTH 2 0
BBX 2 16 0 -16
BITMAP
c0
00
00
00
00
00
00
00
00
00
00
00
00
00
00
c0
ENDCHAR
STARTCHAR MenuDefOutlMiddle-4
ENCODING 157
SWIDTH 42 0
DWIDTH 4 0
BBX 4 16 0 -16
BITMAP
f0
00
00
00
00
00
00
00
00
00
00
00
00
00
00
f0
ENDCHAR
STARTCHAR MenuDefOutlMiddle-8
ENCODING 158
SWIDTH 42 0
DWIDTH 8 0
BBX 8 16 0 -16
BITMAP
ff
00
00
00
00
00
00
00
00
00
00
00
00
00
00
ff
ENDCHAR
STARTCHAR MenuDefOutlMiddle-16
ENCODING 159
SWIDTH 42 0
DWIDTH 16 0
BBX 16 16 0 -16
BITMAP
ffff
0000
0000
0000
0000
0000
0000
0000
0000
0000
0000
0000
0000
0000
0000
ffff
ENDCHAR
STARTCHAR ButtonSpecial-UL
ENCODING 160
SWIDTH 96 0
DWIDTH 7 0
BBX 7 7 0 -7
BITMAP
0e
30
40
40
80
80
80
ENDCHAR
STARTCHAR ButtonSpecial-LL`
ENCODING 161
SWIDTH 96 0
DWIDTH 6 0
BBX 7 7 0 -7
BITMAP
80
80
80
40
40
30
0e
ENDCHAR
STARTCHAR ResizeOutl-UL
ENCODING 162
SWIDTH 42 0
DWIDTH 10 0
BBX 10 10 0 -10
BITMAP
ffc0
8040
8040
8040
8fc0
8800
8800
8800
8800
f800
ENDCHAR
STARTCHAR ResizeOutl-UR
ENCODING 163
SWIDTH 42 0
DWIDTH 10 0
BBX 10 10 0 -10
BITMAP
ffc0
8040
8040
8040
fc40
0440
0440
0440
0440
07c0
ENDCHAR
STARTCHAR ResizeOutl-LR
ENCODING 164
SWIDTH 42 0
DWIDTH 10 0
BBX 10 10 0 -10
BITMAP
07c0
0440
0440
0440
0440
fc40
8040
8040
8040
ffc0
ENDCHAR
STARTCHAR ResizeOutl-LL
ENCODING 165
SWIDTH 42 0
DWIDTH 10 0
BBX 10 10 0 -10
BITMAP
f800
8800
8800
8800
8800
8fc0
8040
8040
8040
ffc0
ENDCHAR
STARTCHAR VerticalScrollbarEle
ENCODING 166
SWIDTH 96 0
DWIDTH 13 0
BBX 13 41 0 -41
BITMAP
7ff0
8018
8018
8018
8018
8418
8a18
9518
8a18
8018
8018
8018
8018
fff8
8018
8018
8018
8018
8018
8018
8018
8018
8018
8018
8018
8018
fff8
8018
8018
8018
8018
9f98
9f98
8f18
8618
8018
8018
8018
8018
fff8
7ff0
ENDCHAR
STARTCHAR VerticalScrollbarEle
ENCODING 167
SWIDTH 96 0
DWIDTH 13 0
BBX 13 41 0 -41
BITMAP
7ff0
8018
8018
8018
8018
8618
8f18
9f98
9f98
8018
8018
8018
8018
fff8
8018
8018
8018
8018
8018
8018
8018
8018
8018
8018
8018
8018
fff8
8018
8018
8018
8018
8a18
9518
8a18
8418
8018
8018
8018
8018
fff8
7ff0
ENDCHAR
STARTCHAR VerticalScrollbarEle
ENCODING 168
SWIDTH 96 0
DWIDTH 13 0
BBX 13 41 0 -41
BITMAP
7ff0
8018
8018
8018
8018
8418
8a18
9518
8a18
8018
8018
8018
8018
fff8
8018
8018
8018
8018
8018
8018
8018
8018
8018
8018
8018
8018
fff8
8018
8018
8018
8018
8a18
9518
8a18
8418
8018
8018
8018
8018
fff8
7ff0
ENDCHAR
STARTCHAR HorizontalScrollbarE
ENCODING 169
SWIDTH 96 0
DWIDTH 16 0
BBX 41 13 0 -13
BITMAP
7fffffffff00
800400200180
800400200180
800400218180
81040021c180
82840021e180
85040021e180
82840021c180
810400218180
800400200180
800400200180
ffffffffff80
7fffffffff00
ENDCHAR
STARTCHAR HorizontalScrollbarE
ENCODING 170
SWIDTH 96 0
DWIDTH 16 0
BBX 41 13 0 -13
BITMAP
7fffffffff00
800400200180
800400200180
818400208180
838400214180
87840020a180
878400214180
838400208180
818400200180
800400200180
800400200180
ffffffffff80
7fffffffff00
ENDCHAR
STARTCHAR HorizontalScrollbarE
ENCODING 171
SWIDTH 96 0
DWIDTH 16 0
BBX 41 13 0 -13
BITMAP
7fffffffff00
800400200180
800400200180
800400208180
810400214180
82840020a180
850400214180
828400208180
810400200180
800400200180
800400200180
ffffffffff80
7fffffffff00
ENDCHAR
STARTCHAR HorizSliderControl-O
ENCODING 172
SWIDTH 42 0
DWIDTH 10 0
BBX 10 13 0 -13
BITMAP
7f80
80c0
80c0
80c0
80c0
80c0
80c0
80c0
80c0
80c0
80c0
ffc0
7f80
ENDCHAR
STARTCHAR HorizSliderLeftEndca
ENCODING 173
SWIDTH 42 0
DWIDTH 3 0
BBX 3 4 0 -4
BITMAP
60
80
80
60
ENDCHAR
STARTCHAR HorizSliderRightEndc
ENCODING 174
SWIDTH 42 0
DWIDTH 3 0
BBX 3 4 0 -4
BITMAP
c0
20
20
c0
ENDCHAR
STARTCHAR HorizSliderMiddle-1
ENCODING 175
SWIDTH 42 0
DWIDTH 1 0
BBX 1 4 0 -4
BITMAP
80
00
00
80
ENDCHAR
STARTCHAR HorizSliderMiddle-2
ENCODING 176
SWIDTH 42 0
DWIDTH 2 0
BBX 2 4 0 -4
BITMAP
c0
00
00
c0
ENDCHAR
STARTCHAR HorizSliderMiddle-4
ENCODING 177
SWIDTH 42 0
DWIDTH 4 0
BBX 4 4 0 -4
BITMAP
f0
00
00
f0
ENDCHAR
STARTCHAR HorizSliderMiddle-8
ENCODING 178
SWIDTH 42 0
DWIDTH 8 0
BBX 8 4 0 -4
BITMAP
ff
00
00
ff
ENDCHAR
STARTCHAR HorizSliderMiddle-16
ENCODING 179
SWIDTH 42 0
DWIDTH 16 0
BBX 16 4 0 -4
BITMAP
ffff
0000
0000
ffff
ENDCHAR
STARTCHAR VertSliderTopEndCap
ENCODING 180
SWIDTH 42 0
DWIDTH 4 0
BBX 4 3 0 -3
BITMAP
60
90
90
ENDCHAR
STARTCHAR VertSliderBottomEndC
ENCODING 181
SWIDTH 42 0
DWIDTH 4 0
BBX 4 3 0 -3
BITMAP
90
90
60
ENDCHAR
STARTCHAR VertSliderControlOut
ENCODING 182
SWIDTH 42 0
DWIDTH 13 0
BBX 13 10 0 -10
BITMAP
7ff0
8018
8018
8018
8018
8018
8018
8018
fff8
7ff0
ENDCHAR
STARTCHAR PushPinOutDefTop
ENCODING 183
SWIDTH 42 0
DWIDTH 26 0
BBX 26 14 0 -14
BITMAP
00070000
00040180
00040200
00047e00
00040200
07fc0200
00040200
00040200
3c040000
40040000
80040000
84040000
84000000
98000000
ENDCHAR
STARTCHAR PushPinOutDefBottom
ENCODING 184
SWIDTH 42 0
DWIDTH 26 0
BBX 26 16 0 -16
BITMAP
00000000
00008000
00008040
00008040
00008040
00008040
03f88240
0000fe40
0000ffc0
0203c3c0
19038180
21030000
21000000
01000000
02000000
3c000000
ENDCHAR
STARTCHAR PushPinOutDefFill
ENCODING 185
SWIDTH 42 0
DWIDTH 26 0
BBX 25 13 0 -13
BITMAP
00000000
00030000
00030180
00030180
00037d80
00037d80
00037d80
00030180
00030000
00000000
00000000
18000000
18000000
ENDCHAR
STARTCHAR Horiz-LeftEndCapOutl
ENCODING 186
SWIDTH 42 0
DWIDTH 4 0
BBX 4 10 0 -10
BITMAP
10
60
40
80
80
80
80
40
60
10
ENDCHAR
STARTCHAR Horiz-RightendcapOut
ENCODING 187
SWIDTH 42 0
DWIDTH 4 0
BBX 4 10 0 -10
BITMAP
80
60
20
10
10
10
10
20
60
80
ENDCHAR
STARTCHAR HorizgaugeMiddOutl-1
ENCODING 188
SWIDTH 42 0
DWIDTH 1 0
BBX 1 10 0 -10
BITMAP
80
00
00
00
00
00
00
00
00
80
ENDCHAR
STARTCHAR HorizgaugeMiddOutl-2
ENCODING 189
SWIDTH 42 0
DWIDTH 2 0
BBX 2 10 0 -10
BITMAP
c0
00
00
00
00
00
00
00
00
c0
ENDCHAR
STARTCHAR HorizgaugeMiddOutl-4
ENCODING 190
SWIDTH 42 0
DWIDTH 4 0
BBX 4 10 0 -10
BITMAP
f0
00
00
00
00
00
00
00
00
f0
ENDCHAR
STARTCHAR HorizgaugeMiddOutl-8
ENCODING 191
SWIDTH 42 0
DWIDTH 8 0
BBX 8 10 0 -10
BITMAP
ff
00
00
00
00
00
00
00
00
ff
ENDCHAR
STARTCHAR HorizgaugeMiddOutl-1
ENCODING 192
SWIDTH 42 0
DWIDTH 16 0
BBX 16 10 0 -10
BITMAP
ffff
0000
0000
0000
0000
0000
0000
0000
0000
ffff
ENDCHAR
STARTCHAR CheckBoxClean
ENCODING 193
SWIDTH 42 0
DWIDTH 13 0
BBX 13 12 0 -12
BITMAP
fff8
0018
0018
0018
0018
0018
0018
0018
0018
0018
0018
0018
ENDCHAR
STARTCHAR Vertsb-Box-UL
ENCODING 194
SWIDTH 42 0
DWIDTH 12 0
BBX 12 14 0 -14
BITMAP
fff0
8000
8000
8000
8000
8000
8000
8000
8000
8000
8000
8000
8000
8000
ENDCHAR
STARTCHAR Vert-Sb-Box-LR
ENCODING 195
SWIDTH 42 0
DWIDTH 12 0
BBX 12 14 0 -14
BITMAP
0000
0010
0010
0010
0010
0010
0010
0010
0010
0010
0010
0010
0010
7ff0
ENDCHAR
STARTCHAR Dimple.UL
ENCODING 196
SWIDTH 42 0
DWIDTH 7 0
BBX 7 9 0 -9
BITMAP
00
00
00
00
0e
18
10
18
0c
ENDCHAR
STARTCHAR Dimple.UL
ENCODING 197
SWIDTH 42 0
DWIDTH 8 0
BBX 8 9 0 -9
BITMAP
00
00
00
00
00
03
01
03
06
ENDCHAR
STARTCHAR Dimple.UL
ENCODING 198
SWIDTH 42 0
DWIDTH 7 0
BBX 7 8 0 -8
BITMAP
00
00
00
00
00
04
0e
04
ENDCHAR
STARTCHAR SliderOffset_SpecCha
ENCODING 199
SWIDTH 42 0
DWIDTH 4 0
BBX 4 1 0 -1
BITMAP
f0
ENDCHAR
STARTCHAR HoriSb-box-UL
ENCODING 200
SWIDTH 42 0
DWIDTH 14 0
BBX 14 13 0 -13
BITMAP
fffc
8000
8000
8000
8000
8000
8000
8000
8000
8000
8000
8000
0000
ENDCHAR
STARTCHAR HoriSb-UL
ENCODING 201
SWIDTH 42 0
DWIDTH 14 0
BBX 14 12 0 -12
BITMAP
0000
0004
0004
0004
0004
0004
0004
0004
0004
0004
0004
7ffc
ENDCHAR
STARTCHAR VertMenumarkback-ul
ENCODING 202
SWIDTH 42 0
DWIDTH 0 0
BBX 7 7 0 -7
BITMAP
10
20
20
40
40
80
80
ENDCHAR
STARTCHAR VertMenuMarkback-LR
ENCODING 203
SWIDTH 42 0
DWIDTH 0 0
BBX 7 7 0 -7
BITMAP
00
08
08
04
04
02
7e
ENDCHAR
STARTCHAR Vertmenubackmark-fil
ENCODING 204
SWIDTH 42 0
DWIDTH 7 0
BBX 7 7 0 -7
BITMAP
00
10
10
38
38
7c
00
ENDCHAR
STARTCHAR HorizMenuMarkback-UL
ENCODING 205
SWIDTH 42 0
DWIDTH 0 0
BBX 7 7 0 -7
BITMAP
06
18
60
80
00
00
00
ENDCHAR
STARTCHAR HorizMenuMarkback-lr
ENCODING 206
SWIDTH 42 0
DWIDTH 0 0
BBX 7 7 0 -7
BITMAP
00
02
02
02
62
1a
06
ENDCHAR
STARTCHAR HorizMenuMarkback-fi
ENCODING 207
SWIDTH 42 0
DWIDTH 7 0
BBX 7 7 0 -7
BITMAP
00
04
1c
7c
1c
04
00
ENDCHAR
STARTCHAR ActiveCaret
ENCODING 208
SWIDTH 96 0
DWIDTH 5 0
BBX 5 5 0 -3
BITMAP
20
20
70
70
f8
ENDCHAR
STARTCHAR InactiveCaret
ENCODING 209
SWIDTH 96 0
DWIDTH 5 0
BBX 5 5 0 -3
BITMAP
20
50
a8
50
20
ENDCHAR
STARTCHAR VertGauge-topOutline
ENCODING 210
SWIDTH 96 0
DWIDTH 10 0
BBX 10 4 0 -4
BITMAP
1e00
6180
4080
8040
ENDCHAR
STARTCHAR VertGauge-BotOutl
ENCODING 211
SWIDTH 96 0
DWIDTH 10 0
BBX 10 4 0 -4
BITMAP
8040
4080
6180
1e00
ENDCHAR
STARTCHAR ButtonSpec-UR
ENCODING 212
SWIDTH 96 0
DWIDTH 7 0
BBX 7 7 0 -7
BITMAP
e0
18
04
04
02
02
02
ENDCHAR
STARTCHAR ButtonSpec-LR
ENCODING 213
SWIDTH 96 0
DWIDTH 7 0
BBX 7 7 0 -7
BITMAP
02
02
02
04
04
18
e0
ENDCHAR
STARTCHAR ButtonSpec-2D-LR
ENCODING 214
SWIDTH 96 0
DWIDTH 7 0
BBX 8 8 0 -8
BITMAP
03
03
03
06
06
1c
f8
e0
ENDCHAR
STARTCHAR ButtonSpecialDef-UL
ENCODING 215
SWIDTH 96 0
DWIDTH 7 0
BBX 7 7 0 -7
BITMAP
00
00
00
06
08
10
10
ENDCHAR
STARTCHAR ButtonSpecialDef-LL
ENCODING 216
SWIDTH 96 0
DWIDTH 7 0
BBX 7 4 0 -4
BITMAP
10
10
08
06
ENDCHAR
STARTCHAR ButtonSpecDef-UR
ENCODING 217
SWIDTH 96 0
DWIDTH 4 0
BBX 4 7 0 -7
BITMAP
00
00
00
c0
20
10
10
ENDCHAR
STARTCHAR ButtonSpecDef-LR
ENCODING 218
SWIDTH 96 0
DWIDTH 4 0
BBX 4 4 0 -4
BITMAP
10
10
20
c0
ENDCHAR
STARTCHAR HorizGaugeLeftEndFil
ENCODING 219
SWIDTH 42 0
DWIDTH 4 0
BBX 4 10 0 -10
BITMAP
00
10
30
70
70
70
70
30
10
00
ENDCHAR
STARTCHAR HorizGaugeMiddleFill
ENCODING 220
SWIDTH 42 0
DWIDTH 1 0
BBX 1 10 0 -10
BITMAP
00
80
80
80
80
80
80
80
80
00
ENDCHAR
STARTCHAR HorizGaugeMiddleFill
ENCODING 221
SWIDTH 42 0
DWIDTH 2 0
BBX 2 10 0 -10
BITMAP
00
c0
c0
c0
c0
c0
c0
c0
c0
00
ENDCHAR
STARTCHAR HorizGaugeMiddleFill
ENCODING 222
SWIDTH 42 0
DWIDTH 4 0
BBX 4 10 0 -10
BITMAP
00
f0
f0
f0
f0
f0
f0
f0
f0
00
ENDCHAR
STARTCHAR HorizGaugeMiddleFill
ENCODING 223
SWIDTH 42 0
DWIDTH 8 0
BBX 8 10 0 -10
BITMAP
00
ff
ff
ff
ff
ff
ff
ff
ff
00
ENDCHAR
STARTCHAR HorizGaugeMiddleFill
ENCODING 224
SWIDTH 42 0
DWIDTH 16 0
BBX 16 10 0 -10
BITMAP
0000
ffff
ffff
ffff
ffff
ffff
ffff
ffff
ffff
0000
ENDCHAR
STARTCHAR HorizGaugeRightEndFi
ENCODING 225
SWIDTH 42 0
DWIDTH 4 0
BBX 4 10 0 -10
BITMAP
00
80
c0
e0
e0
e0
e0
c0
80
00
ENDCHAR
STARTCHAR VertGauge-topFill
ENCODING 226
SWIDTH 96 0
DWIDTH 10 0
BBX 10 4 0 -4
BITMAP
0000
1e00
3f00
7f80
ENDCHAR
STARTCHAR VertGauge-BotFill
ENCODING 227
SWIDTH 96 0
DWIDTH 10 0
BBX 10 4 0 -4
BITMAP
7f80
3f00
1e00
0000
ENDCHAR
STARTCHAR LeftTextScrollButton
ENCODING 228
SWIDTH 96 0
DWIDTH 13 0
BBX 13 13 0 -13
BITMAP
7fe0
8010
8018
8318
8718
8f18
8f18
8718
8318
8018
8018
7ff8
3ff0
ENDCHAR
STARTCHAR RightTextScrollButton
ENCODING 229
SWIDTH 96 0
DWIDTH 13 0
BBX 13 13 0 -13
BITMAP
7fe0
8010
8018
8c18
8e18
8f18
8f18
8e18
8c18
8018
8018
7ff8
3ff0
ENDCHAR
STARTCHAR LeftTextScrollButton-Inv
ENCODING 230
SWIDTH 96 0
DWIDTH 13 0
BBX 13 13 0 -13
BITMAP
7fe0
8010
bfd8
bcd8
b8d8
b0d8
b0d8
b8d8
bcd8
bfd8
8018
7ff8
3ff0
ENDCHAR
STARTCHAR RightTextScrollButton-Inv
ENCODING 231
SWIDTH 96 0
DWIDTH 13 0
BBX 13 13 0 -13
BITMAP
7fe0
8010
bfd8
b3d8
b1d8
b0d8
b0d8
b1d8
b3d8
bfd8
8018
7ff8
3ff0
ENDCHAR
STARTCHAR NumericaScrollButton
ENCODING 232
SWIDTH 96 0
DWIDTH 24 0
BBX 24 13 0 -13
BITMAP
7ffffc
801002
801003
801003
8613f3
8f13f3
9f91e3
9f90c3
801003
801003
801003
7fffff
3ffffe
ENDCHAR
STARTCHAR NumericaScrollButton-LeftInv
ENCODING 233
SWIDTH 96 0
DWIDTH 24 0
BBX 24 13 0 -13
BITMAP
7ffffc
801002
bfd003
bfd003
b9d3f3
b0d3f3
a051e3
a050c3
bfd003
bfd003
801003
7fffff
3ffffe
ENDCHAR
STARTCHAR NumericaScrollButton-RightInv
ENCODING 234
SWIDTH 96 0
DWIDTH 24 0
BBX 24 13 0 -13
BITMAP
7ffffc
801002
8017fb
8017fb
86140b
8f140b
9f961b
9f973b
8017fb
8017fb
801003
7fffff
3ffffe
ENDCHAR
ENDFONT
